# xmcd
#
# Track frame offsets: 
#        150
#        15383
#        32116
#        49812
#        65630
#        84216
#        99400
#        113645
#        131794
#        145127
#        164742
#
# Disc length: 2399 seconds
#
# Revision: 0
# Processed by: cddbd v1.5.2PL0 Copyright (c) Steve Scherf et al.
# Submitted via: ExactAudioCopy v1.0b3
#
DISCID=90095d0b
DTITLE=Jali - Une seconde avant l'aube
DYEAR=2015
DGENRE=Undefined
TTITLE0=Pars
TTITLE1=Dis-le moi
TTITLE2=Ce soir
TTITLE3=Elena
TTITLE4=A bout de toi
TTITLE5=Une idée
TTITLE6=Ma cause
TTITLE7=Par amour
TTITLE8=En quarantaine
TTITLE9=Les sirènes
TTITLE10=Si tout ne passe pas
EXTD=
EXTT0=
EXTT1=
EXTT2=
EXTT3=
EXTT4=
EXTT5=
EXTT6=
EXTT7=
EXTT8=
EXTT9=
EXTT10=
PLAYORDER=
